<svg xmlns="http://www.w3.org/2000/svg" viewBox="0 0 200 200">
  <rect width="200" height="200" fill="#fdf6e3" rx="10"/>
  <g stroke="#4a3728" fill="none" stroke-linecap="round" stroke-linejoin="round">
    <path d="M55 130 Q40 85 65 50 Q80 35 95 42 Q88 60 90 90 Q92 120 85 135 Q72 142 55 130" stroke-width="2"/>
    <path d="M95 42 L100 38" stroke-width="2"/>
    <path d="M60 130 Q48 90 70 55" stroke-width="1"/>
    <path d="M118 125 Q105 80 128 48 Q142 32 158 40 Q150 58 152 88 Q154 118 148 132 Q135 140 118 125" stroke-width="2"/>
    <path d="M158 40 L162 35" stroke-width="2"/>
    <path d="M123 125 Q112 85 132 52" stroke-width="1"/>
  </g>
  <text x="100" y="188" text-anchor="middle" font-family="Georgia,serif" font-size="12" fill="#5c4033" font-style="italic">Banana</text>
</svg>