<svg xmlns="http://www.w3.org/2000/svg" viewBox="0 0 200 200">
  <rect width="200" height="200" fill="#fdf6e3" rx="10"/>
  <g stroke="#4a3728" fill="none" stroke-linecap="round" stroke-linejoin="round">
    <path d="M90 50 Q70 70 72 95 Q75 110 90 110 Q100 105 100 90 Q100 70 90 50" stroke-width="2"/>
    <path d="M110 50 Q130 70 128 95 Q125 110 110 110 Q100 105 100 90 Q100 70 110 50" stroke-width="2"/>
    <path d="M100 48 L100 30" stroke-width="2"/>
    <path d="M90 80 Q100 75 110 80" stroke-width="1"/>
    <path d="M85 90 Q100 85 115 90" stroke-width="1"/>
    <circle cx="72" cy="130" r="2.5" fill="#4a3728"/>
    <circle cx="82" cy="135" r="2.5" fill="#4a3728"/>
    <circle cx="92" cy="132" r="2" fill="#4a3728"/>
    <circle cx="100" cy="138" r="2.5" fill="#4a3728"/>
    <circle cx="110" cy="134" r="2" fill="#4a3728"/>
    <circle cx="120" cy="130" r="2.5" fill="#4a3728"/>
    <circle cx="128" cy="136" r="2" fill="#4a3728"/>
  </g>
  <text x="100" y="188" text-anchor="middle" font-family="Georgia,serif" font-size="12" fill="#5c4033" font-style="italic">Basil Seeds</text>
</svg>