<svg xmlns="http://www.w3.org/2000/svg" viewBox="0 0 200 200">
  <rect width="200" height="200" fill="#fdf6e3" rx="10"/>
  <g stroke="#4a3728" fill="none" stroke-linecap="round" stroke-linejoin="round">
    <path d="M100 45 Q70 55 62 85 Q55 120 68 145 Q80 162 100 165 Q120 162 132 145 Q145 120 138 85 Q130 55 100 45" stroke-width="2"/>
    <path d="M100 45 Q85 55 82 85 Q80 115 100 165" stroke-width="1"/>
    <path d="M100 45 Q115 55 118 85 Q120 115 100 165" stroke-width="1"/>
    <path d="M96 45 Q94 32 98 26 Q102 32 100 45" stroke-width="1.5"/>
    <path d="M98 26 L98 18" stroke-width="2"/>
  </g>
  <text x="100" y="188" text-anchor="middle" font-family="Georgia,serif" font-size="12" fill="#5c4033" font-style="italic">Bell Pepper</text>
</svg>