<svg xmlns="http://www.w3.org/2000/svg" viewBox="0 0 200 200">
  <rect width="200" height="200" fill="#fdf6e3" rx="10"/>
  <g stroke="#4a3728" fill="none" stroke-linecap="round" stroke-linejoin="round">
    <path d="M90 50 Q70 68 72 90 Q75 105 88 105 Q98 100 96 85 Q94 65 90 50" stroke-width="2"/>
    <path d="M110 50 Q130 68 128 90 Q125 105 112 105 Q102 100 104 85 Q106 65 110 50" stroke-width="2"/>
    <path d="M100 48 L100 32" stroke-width="2"/>
    <path d="M80 78 Q90 74 96 80" stroke-width="0.8"/>
    <path d="M104 80 Q110 74 120 78" stroke-width="0.8"/>
    <ellipse cx="72" cy="130" rx="7" ry="5" stroke-width="1.2" transform="rotate(-10 72 130)"/>
    <ellipse cx="92" cy="134" rx="7" ry="5" stroke-width="1.2" transform="rotate(8 92 134)"/>
    <ellipse cx="112" cy="130" rx="7" ry="5" stroke-width="1.2" transform="rotate(-5 112 130)"/>
    <ellipse cx="130" cy="135" rx="7" ry="5" stroke-width="1.2" transform="rotate(12 130 135)"/>
  </g>
  <text x="100" y="188" text-anchor="middle" font-family="Georgia,serif" font-size="12" fill="#5c4033" font-style="italic">Fenugreek</text>
</svg>