<svg xmlns="http://www.w3.org/2000/svg" viewBox="0 0 200 200">
  <rect width="200" height="200" fill="#fdf6e3" rx="10"/>
  <g stroke="#4a3728" fill="none" stroke-linecap="round" stroke-linejoin="round">
    <path d="M65 50 Q55 58 55 70 Q55 80 65 82 Q72 82 74 72 Q76 68 74 62 Q72 54 65 50" stroke-width="2"/>
    <path d="M65 82 Q55 88 55 100 Q55 110 65 112 Q72 112 74 102 Q76 98 74 92 Q72 86 65 82" stroke-width="2"/>
    <path d="M110 55 Q100 62 100 74 Q100 84 110 86 Q118 86 120 76 Q122 72 120 66 Q118 58 110 55" stroke-width="2"/>
    <path d="M110 86 Q100 92 100 104 Q100 114 110 116 Q118 116 120 106 Q122 102 120 96 Q118 90 110 86" stroke-width="2"/>
    <path d="M88 110 Q78 118 78 130 Q78 140 88 142 Q96 142 98 132 Q100 128 98 122 Q96 114 88 110" stroke-width="2"/>
    <path d="M88 142 Q78 148 78 160 Q78 168 88 170 Q96 170 98 160 Q100 156 98 150 Q96 144 88 142" stroke-width="2"/>
  </g>
  <text x="100" y="188" text-anchor="middle" font-family="Georgia,serif" font-size="12" fill="#5c4033" font-style="italic">Peanuts</text>
</svg>