<svg xmlns="http://www.w3.org/2000/svg" viewBox="0 0 200 200">
  <rect width="200" height="200" fill="#fdf6e3" rx="10"/>
  <g stroke="#4a3728" fill="none" stroke-linecap="round" stroke-linejoin="round">
    <rect x="65" y="42" width="70" height="120" rx="8" stroke-width="2"/>
    <path d="M65 58 L135 58" stroke-width="1.5"/>
    <path d="M85 42 L85 58 M115 42 L115 58" stroke-width="1.2"/>
    <ellipse cx="82" cy="75" rx="5" ry="3" stroke-width="1.2" transform="rotate(-25 82 75)"/>
    <ellipse cx="100" cy="72" rx="5" ry="3" stroke-width="1.2" transform="rotate(15 100 72)"/>
    <ellipse cx="118" cy="76" rx="5" ry="3" stroke-width="1.2" transform="rotate(-10 118 76)"/>
    <ellipse cx="85" cy="95" rx="5" ry="3" stroke-width="1.2" transform="rotate(20 85 95)"/>
    <ellipse cx="105" cy="92" rx="5" ry="3" stroke-width="1.2" transform="rotate(-5 105 92)"/>
    <ellipse cx="90" cy="112" rx="5" ry="3" stroke-width="1.2" transform="rotate(10 90 112)"/>
    <ellipse cx="112" cy="110" rx="5" ry="3" stroke-width="1.2" transform="rotate(-18 112 110)"/>
    <ellipse cx="98" cy="130" rx="5" ry="3" stroke-width="1.2" transform="rotate(8 98 130)"/>
    <ellipse cx="118" cy="128" rx="5" ry="3" stroke-width="1.2" transform="rotate(22 118 128)"/>
  </g>
  <text x="100" y="188" text-anchor="middle" font-family="Georgia,serif" font-size="12" fill="#5c4033" font-style="italic">Sesame Seeds</text>
</svg>