<svg xmlns="http://www.w3.org/2000/svg" viewBox="0 0 200 200">
  <rect width="200" height="200" fill="#fdf6e3" rx="10"/>
  <g stroke="#4a3728" fill="none" stroke-linecap="round" stroke-linejoin="round">
    <circle cx="100" cy="82" r="18" stroke-width="2"/>
    <ellipse cx="100" cy="55" rx="8" ry="12" stroke-width="1.5"/>
    <ellipse cx="120" cy="62" rx="8" ry="12" stroke-width="1.5" transform="rotate(40 120 62)"/>
    <ellipse cx="127" cy="82" rx="12" ry="8" stroke-width="1.5"/>
    <ellipse cx="120" cy="102" rx="8" ry="12" stroke-width="1.5" transform="rotate(-40 120 102)"/>
    <ellipse cx="100" cy="110" rx="8" ry="12" stroke-width="1.5"/>
    <ellipse cx="80" cy="102" rx="8" ry="12" stroke-width="1.5" transform="rotate(40 80 102)"/>
    <ellipse cx="73" cy="82" rx="12" ry="8" stroke-width="1.5"/>
    <ellipse cx="80" cy="62" rx="8" ry="12" stroke-width="1.5" transform="rotate(-40 80 62)"/>
    <path d="M100 122 L100 165" stroke-width="2"/>
    <path d="M100 142 Q118 132 116 152" stroke-width="1.5"/>
    <circle cx="94" cy="78" r="2" fill="#4a3728"/>
    <circle cx="100" cy="76" r="2" fill="#4a3728"/>
    <circle cx="106" cy="78" r="2" fill="#4a3728"/>
    <circle cx="96" cy="86" r="2" fill="#4a3728"/>
    <circle cx="104" cy="86" r="2" fill="#4a3728"/>
  </g>
  <text x="100" y="188" text-anchor="middle" font-family="Georgia,serif" font-size="12" fill="#5c4033" font-style="italic">Sunflower Seeds</text>
</svg>