<svg xmlns="http://www.w3.org/2000/svg" viewBox="0 0 200 200">
  <rect width="200" height="200" fill="#fdf6e3" rx="10"/>
  <g stroke="#4a3728" fill="none" stroke-linecap="round" stroke-linejoin="round">
    <path d="M70 90 Q65 80 70 60 Q75 45 85 42 Q95 42 95 55 Q95 70 90 90" stroke-width="2"/>
    <path d="M90 90 Q85 75 92 58 Q98 48 108 48 Q115 52 112 65 Q108 80 105 90" stroke-width="2"/>
    <path d="M105 90 Q102 78 108 62 Q115 50 125 52 Q132 58 128 72 Q124 85 120 90" stroke-width="2"/>
    <path d="M70 90 Q68 100 72 108" stroke-width="1.5"/>
    <path d="M90 90 Q88 102 92 112" stroke-width="1.5"/>
    <path d="M105 90 Q103 100 107 110" stroke-width="1.5"/>
    <path d="M120 90 Q118 98 122 106" stroke-width="1.5"/>
    <path d="M60 90 L140 90" stroke-width="0.8" stroke-dasharray="3 3"/>
  </g>
  <text x="100" y="188" text-anchor="middle" font-family="Georgia,serif" font-size="12" fill="#5c4033" font-style="italic">Turmeric</text>
</svg>